<svg width="1228" height="261" viewBox="0 0 1228 261" fill="none" xmlns="http://www.w3.org/2000/svg">
<g clip-path="url(#clip0_241_66)">
<rect width="1228" height="261" fill="white"/>
<rect width="1228" height="261" fill="#8F9779"/>
<path d="M62.98 154V112H81.16C84.92 112 88.16 112.62 90.88 113.86C93.6 115.06 95.7 116.8 97.18 119.08C98.66 121.36 99.4 124.08 99.4 127.24C99.4 130.36 98.66 133.06 97.18 135.34C95.7 137.62 93.6 139.38 90.88 140.62C88.16 141.82 84.92 142.42 81.16 142.42H68.38L72.7 138.04V154H62.98ZM72.7 139.12L68.38 134.5H80.62C83.62 134.5 85.86 133.86 87.34 132.58C88.82 131.3 89.56 129.52 89.56 127.24C89.56 124.92 88.82 123.12 87.34 121.84C85.86 120.56 83.62 119.92 80.62 119.92H68.38L72.7 115.3V139.12ZM105.621 154V121.72H114.561V130.84L113.301 128.2C114.261 125.92 115.801 124.2 117.921 123.04C120.041 121.84 122.621 121.24 125.661 121.24V129.88C125.261 129.84 124.901 129.82 124.581 129.82C124.261 129.78 123.921 129.76 123.561 129.76C121.001 129.76 118.921 130.5 117.321 131.98C115.761 133.42 114.981 135.68 114.981 138.76V154H105.621ZM146.352 154.48C142.912 154.48 139.852 153.76 137.172 152.32C134.532 150.88 132.432 148.92 130.872 146.44C129.352 143.92 128.592 141.06 128.592 137.86C128.592 134.62 129.352 131.76 130.872 129.28C132.432 126.76 134.532 124.8 137.172 123.4C139.852 121.96 142.912 121.24 146.352 121.24C149.752 121.24 152.792 121.96 155.472 123.4C158.152 124.8 160.252 126.74 161.772 129.22C163.292 131.7 164.052 134.58 164.052 137.86C164.052 141.06 163.292 143.92 161.772 146.44C160.252 148.92 158.152 150.88 155.472 152.32C152.792 153.76 149.752 154.48 146.352 154.48ZM146.352 146.8C147.912 146.8 149.312 146.44 150.552 145.72C151.792 145 152.772 143.98 153.492 142.66C154.212 141.3 154.572 139.7 154.572 137.86C154.572 135.98 154.212 134.38 153.492 133.06C152.772 131.74 151.792 130.72 150.552 130C149.312 129.28 147.912 128.92 146.352 128.92C144.792 128.92 143.392 129.28 142.152 130C140.912 130.72 139.912 131.74 139.152 133.06C138.432 134.38 138.072 135.98 138.072 137.86C138.072 139.7 138.432 141.3 139.152 142.66C139.912 143.98 140.912 145 142.152 145.72C143.392 146.44 144.792 146.8 146.352 146.8ZM211.648 121.24C214.208 121.24 216.468 121.76 218.428 122.8C220.428 123.8 221.988 125.36 223.108 127.48C224.268 129.56 224.848 132.24 224.848 135.52V154H215.488V136.96C215.488 134.36 214.948 132.44 213.868 131.2C212.788 129.96 211.268 129.34 209.308 129.34C207.948 129.34 206.728 129.66 205.648 130.3C204.568 130.9 203.728 131.82 203.128 133.06C202.528 134.3 202.228 135.88 202.228 137.8V154H192.868V136.96C192.868 134.36 192.328 132.44 191.248 131.2C190.208 129.96 188.708 129.34 186.748 129.34C185.388 129.34 184.168 129.66 183.088 130.3C182.008 130.9 181.168 131.82 180.568 133.06C179.968 134.3 179.668 135.88 179.668 137.8V154H170.308V121.72H179.248V130.54L177.568 127.96C178.688 125.76 180.268 124.1 182.308 122.98C184.388 121.82 186.748 121.24 189.388 121.24C192.348 121.24 194.928 122 197.128 123.52C199.368 125 200.848 127.28 201.568 130.36L198.268 129.46C199.348 126.94 201.068 124.94 203.428 123.46C205.828 121.98 208.568 121.24 211.648 121.24ZM248.832 154.48C245.392 154.48 242.332 153.76 239.652 152.32C237.012 150.88 234.912 148.92 233.352 146.44C231.832 143.92 231.072 141.06 231.072 137.86C231.072 134.62 231.832 131.76 233.352 129.28C234.912 126.76 237.012 124.8 239.652 123.4C242.332 121.96 245.392 121.24 248.832 121.24C252.232 121.24 255.272 121.96 257.952 123.4C260.632 124.8 262.732 126.74 264.252 129.22C265.772 131.7 266.532 134.58 266.532 137.86C266.532 141.06 265.772 143.92 264.252 146.44C262.732 148.92 260.632 150.88 257.952 152.32C255.272 153.76 252.232 154.48 248.832 154.48ZM248.832 146.8C250.392 146.8 251.792 146.44 253.032 145.72C254.272 145 255.252 143.98 255.972 142.66C256.692 141.3 257.052 139.7 257.052 137.86C257.052 135.98 256.692 134.38 255.972 133.06C255.252 131.74 254.272 130.72 253.032 130C251.792 129.28 250.392 128.92 248.832 128.92C247.272 128.92 245.872 129.28 244.632 130C243.392 130.72 242.392 131.74 241.632 133.06C240.912 134.38 240.552 135.98 240.552 137.86C240.552 139.7 240.912 141.3 241.632 142.66C242.392 143.98 243.392 145 244.632 145.72C245.872 146.44 247.272 146.8 248.832 146.8ZM288.389 154.48C284.909 154.48 281.809 153.78 279.089 152.38C276.369 150.94 274.229 148.96 272.669 146.44C271.149 143.92 270.389 141.06 270.389 137.86C270.389 134.62 271.149 131.76 272.669 129.28C274.229 126.76 276.369 124.8 279.089 123.4C281.809 121.96 284.909 121.24 288.389 121.24C291.789 121.24 294.749 121.96 297.269 123.4C299.789 124.8 301.649 126.82 302.849 129.46L295.589 133.36C294.749 131.84 293.689 130.72 292.409 130C291.169 129.28 289.809 128.92 288.329 128.92C286.729 128.92 285.289 129.28 284.009 130C282.729 130.72 281.709 131.74 280.949 133.06C280.229 134.38 279.869 135.98 279.869 137.86C279.869 139.74 280.229 141.34 280.949 142.66C281.709 143.98 282.729 145 284.009 145.72C285.289 146.44 286.729 146.8 288.329 146.8C289.809 146.8 291.169 146.46 292.409 145.78C293.689 145.06 294.749 143.92 295.589 142.36L302.849 146.32C301.649 148.92 299.789 150.94 297.269 152.38C294.749 153.78 291.789 154.48 288.389 154.48ZM284.969 167.92C283.929 167.92 282.909 167.8 281.909 167.56C280.949 167.32 280.109 167.02 279.389 166.66L280.829 162.64C281.429 162.92 282.049 163.14 282.689 163.3C283.329 163.46 284.009 163.54 284.729 163.54C285.849 163.54 286.649 163.36 287.129 163C287.609 162.64 287.849 162.18 287.849 161.62C287.849 161.1 287.609 160.68 287.129 160.36C286.689 160.04 285.949 159.88 284.909 159.88H282.869L284.429 153.52H289.409L288.569 157C290.369 157.2 291.689 157.76 292.529 158.68C293.369 159.64 293.789 160.74 293.789 161.98C293.789 163.78 292.989 165.22 291.389 166.3C289.789 167.38 287.649 167.92 284.969 167.92ZM328.038 154V147.7L327.438 146.32V135.04C327.438 133.04 326.818 131.48 325.578 130.36C324.378 129.24 322.518 128.68 319.998 128.68C318.278 128.68 316.578 128.96 314.898 129.52C313.258 130.04 311.858 130.76 310.698 131.68L307.338 125.14C309.098 123.9 311.218 122.94 313.698 122.26C316.178 121.58 318.698 121.24 321.258 121.24C326.178 121.24 329.998 122.4 332.718 124.72C335.438 127.04 336.798 130.66 336.798 135.58V154H328.038ZM318.198 154.48C315.678 154.48 313.518 154.06 311.718 153.22C309.918 152.34 308.538 151.16 307.578 149.68C306.618 148.2 306.138 146.54 306.138 144.7C306.138 142.78 306.598 141.1 307.518 139.66C308.478 138.22 309.978 137.1 312.018 136.3C314.058 135.46 316.718 135.04 319.998 135.04H328.578V140.5H321.018C318.818 140.5 317.298 140.86 316.458 141.58C315.658 142.3 315.258 143.2 315.258 144.28C315.258 145.48 315.718 146.44 316.638 147.16C317.598 147.84 318.898 148.18 320.538 148.18C322.098 148.18 323.498 147.82 324.738 147.1C325.978 146.34 326.878 145.24 327.438 143.8L328.878 148.12C328.198 150.2 326.958 151.78 325.158 152.86C323.358 153.94 321.038 154.48 318.198 154.48ZM326.718 117.76C325.678 117.76 324.758 117.58 323.958 117.22C323.158 116.82 322.438 116.38 321.798 115.9C321.158 115.38 320.558 114.94 319.998 114.58C319.438 114.18 318.878 113.98 318.318 113.98C317.518 113.98 316.858 114.28 316.338 114.88C315.818 115.44 315.518 116.26 315.438 117.34H310.698C310.778 114.66 311.438 112.54 312.678 110.98C313.918 109.38 315.598 108.58 317.718 108.58C318.758 108.58 319.678 108.78 320.478 109.18C321.278 109.54 321.998 109.98 322.638 110.5C323.318 111.02 323.938 111.48 324.498 111.88C325.058 112.24 325.598 112.42 326.118 112.42C326.958 112.42 327.638 112.14 328.158 111.58C328.678 110.98 328.958 110.18 328.998 109.18H333.738C333.698 111.74 333.038 113.82 331.758 115.42C330.518 116.98 328.838 117.76 326.718 117.76ZM360.864 154.48C357.424 154.48 354.364 153.76 351.684 152.32C349.044 150.88 346.944 148.92 345.384 146.44C343.864 143.92 343.104 141.06 343.104 137.86C343.104 134.62 343.864 131.76 345.384 129.28C346.944 126.76 349.044 124.8 351.684 123.4C354.364 121.96 357.424 121.24 360.864 121.24C364.264 121.24 367.304 121.96 369.984 123.4C372.664 124.8 374.764 126.74 376.284 129.22C377.804 131.7 378.564 134.58 378.564 137.86C378.564 141.06 377.804 143.92 376.284 146.44C374.764 148.92 372.664 150.88 369.984 152.32C367.304 153.76 364.264 154.48 360.864 154.48ZM360.864 146.8C362.424 146.8 363.824 146.44 365.064 145.72C366.304 145 367.284 143.98 368.004 142.66C368.724 141.3 369.084 139.7 369.084 137.86C369.084 135.98 368.724 134.38 368.004 133.06C367.284 131.74 366.304 130.72 365.064 130C363.824 129.28 362.424 128.92 360.864 128.92C359.304 128.92 357.904 129.28 356.664 130C355.424 130.72 354.424 131.74 353.664 133.06C352.944 134.38 352.584 135.98 352.584 137.86C352.584 139.7 352.944 141.3 353.664 142.66C354.424 143.98 355.424 145 356.664 145.72C357.904 146.44 359.304 146.8 360.864 146.8ZM417.412 154.48C413.932 154.48 410.832 153.78 408.112 152.38C405.392 150.94 403.252 148.96 401.692 146.44C400.172 143.92 399.412 141.06 399.412 137.86C399.412 134.62 400.172 131.76 401.692 129.28C403.252 126.76 405.392 124.8 408.112 123.4C410.832 121.96 413.932 121.24 417.412 121.24C420.812 121.24 423.772 121.96 426.292 123.4C428.812 124.8 430.672 126.82 431.872 129.46L424.612 133.36C423.772 131.84 422.712 130.72 421.432 130C420.192 129.28 418.832 128.92 417.352 128.92C415.752 128.92 414.312 129.28 413.032 130C411.752 130.72 410.732 131.74 409.972 133.06C409.252 134.38 408.892 135.98 408.892 137.86C408.892 139.74 409.252 141.34 409.972 142.66C410.732 143.98 411.752 145 413.032 145.72C414.312 146.44 415.752 146.8 417.352 146.8C418.832 146.8 420.192 146.46 421.432 145.78C422.712 145.06 423.772 143.92 424.612 142.36L431.872 146.32C430.672 148.92 428.812 150.94 426.292 152.38C423.772 153.78 420.812 154.48 417.412 154.48ZM457.061 154V147.7L456.461 146.32V135.04C456.461 133.04 455.841 131.48 454.601 130.36C453.401 129.24 451.541 128.68 449.021 128.68C447.301 128.68 445.601 128.96 443.921 129.52C442.281 130.04 440.881 130.76 439.721 131.68L436.361 125.14C438.121 123.9 440.241 122.94 442.721 122.26C445.201 121.58 447.721 121.24 450.281 121.24C455.201 121.24 459.021 122.4 461.741 124.72C464.461 127.04 465.821 130.66 465.821 135.58V154H457.061ZM447.221 154.48C444.701 154.48 442.541 154.06 440.741 153.22C438.941 152.34 437.561 151.16 436.601 149.68C435.641 148.2 435.161 146.54 435.161 144.7C435.161 142.78 435.621 141.1 436.541 139.66C437.501 138.22 439.001 137.1 441.041 136.3C443.081 135.46 445.741 135.04 449.021 135.04H457.601V140.5H450.041C447.841 140.5 446.321 140.86 445.481 141.58C444.681 142.3 444.281 143.2 444.281 144.28C444.281 145.48 444.741 146.44 445.661 147.16C446.621 147.84 447.921 148.18 449.561 148.18C451.121 148.18 452.521 147.82 453.761 147.1C455.001 146.34 455.901 145.24 456.461 143.8L457.901 148.12C457.221 150.2 455.981 151.78 454.181 152.86C452.381 153.94 450.061 154.48 447.221 154.48ZM488.387 154.48C485.347 154.48 482.607 153.8 480.167 152.44C477.727 151.04 475.787 149.1 474.347 146.62C472.947 144.14 472.247 141.22 472.247 137.86C472.247 134.46 472.947 131.52 474.347 129.04C475.787 126.56 477.727 124.64 480.167 123.28C482.607 121.92 485.347 121.24 488.387 121.24C491.107 121.24 493.487 121.84 495.527 123.04C497.567 124.24 499.147 126.06 500.267 128.5C501.387 130.94 501.947 134.06 501.947 137.86C501.947 141.62 501.407 144.74 500.327 147.22C499.247 149.66 497.687 151.48 495.647 152.68C493.647 153.88 491.227 154.48 488.387 154.48ZM490.007 146.8C491.527 146.8 492.907 146.44 494.147 145.72C495.387 145 496.367 143.98 497.087 142.66C497.847 141.3 498.227 139.7 498.227 137.86C498.227 135.98 497.847 134.38 497.087 133.06C496.367 131.74 495.387 130.72 494.147 130C492.907 129.28 491.527 128.92 490.007 128.92C488.447 128.92 487.047 129.28 485.807 130C484.567 130.72 483.567 131.74 482.807 133.06C482.087 134.38 481.727 135.98 481.727 137.86C481.727 139.7 482.087 141.3 482.807 142.66C483.567 143.98 484.567 145 485.807 145.72C487.047 146.44 488.447 146.8 490.007 146.8ZM498.467 154V147.4L498.647 137.8L498.047 128.26V109.48H507.407V154H498.467ZM535.87 154V147.7L535.27 146.32V135.04C535.27 133.04 534.65 131.48 533.41 130.36C532.21 129.24 530.35 128.68 527.83 128.68C526.11 128.68 524.41 128.96 522.73 129.52C521.09 130.04 519.69 130.76 518.53 131.68L515.17 125.14C516.93 123.9 519.05 122.94 521.53 122.26C524.01 121.58 526.53 121.24 529.09 121.24C534.01 121.24 537.83 122.4 540.55 124.72C543.27 127.04 544.63 130.66 544.63 135.58V154H535.87ZM526.03 154.48C523.51 154.48 521.35 154.06 519.55 153.22C517.75 152.34 516.37 151.16 515.41 149.68C514.45 148.2 513.97 146.54 513.97 144.7C513.97 142.78 514.43 141.1 515.35 139.66C516.31 138.22 517.81 137.1 519.85 136.3C521.89 135.46 524.55 135.04 527.83 135.04H536.41V140.5H528.85C526.65 140.5 525.13 140.86 524.29 141.58C523.49 142.3 523.09 143.2 523.09 144.28C523.09 145.48 523.55 146.44 524.47 147.16C525.43 147.84 526.73 148.18 528.37 148.18C529.93 148.18 531.33 147.82 532.57 147.1C533.81 146.34 534.71 145.24 535.27 143.8L536.71 148.12C536.03 150.2 534.79 151.78 532.99 152.86C531.19 153.94 528.87 154.48 526.03 154.48ZM563.961 154.48C561.201 154.48 558.541 154.16 555.981 153.52C553.461 152.84 551.461 152 549.981 151L553.101 144.28C554.581 145.2 556.321 145.96 558.321 146.56C560.361 147.12 562.361 147.4 564.321 147.4C566.481 147.4 568.001 147.14 568.881 146.62C569.801 146.1 570.261 145.38 570.261 144.46C570.261 143.7 569.901 143.14 569.181 142.78C568.501 142.38 567.581 142.08 566.421 141.88C565.261 141.68 563.981 141.48 562.581 141.28C561.221 141.08 559.841 140.82 558.441 140.5C557.041 140.14 555.761 139.62 554.601 138.94C553.441 138.26 552.501 137.34 551.781 136.18C551.101 135.02 550.761 133.52 550.761 131.68C550.761 129.64 551.341 127.84 552.501 126.28C553.701 124.72 555.421 123.5 557.661 122.62C559.901 121.7 562.581 121.24 565.701 121.24C567.901 121.24 570.141 121.48 572.421 121.96C574.701 122.44 576.601 123.14 578.121 124.06L575.001 130.72C573.441 129.8 571.861 129.18 570.261 128.86C568.701 128.5 567.181 128.32 565.701 128.32C563.621 128.32 562.101 128.6 561.141 129.16C560.181 129.72 559.701 130.44 559.701 131.32C559.701 132.12 560.041 132.72 560.721 133.12C561.441 133.52 562.381 133.84 563.541 134.08C564.701 134.32 565.961 134.54 567.321 134.74C568.721 134.9 570.121 135.16 571.521 135.52C572.921 135.88 574.181 136.4 575.301 137.08C576.461 137.72 577.401 138.62 578.121 139.78C578.841 140.9 579.201 142.38 579.201 144.22C579.201 146.22 578.601 148 577.401 149.56C576.201 151.08 574.461 152.28 572.181 153.16C569.941 154.04 567.201 154.48 563.961 154.48ZM598.176 154.48C594.376 154.48 591.416 153.52 589.296 151.6C587.176 149.64 586.116 146.74 586.116 142.9V114.58H595.476V142.78C595.476 144.14 595.836 145.2 596.556 145.96C597.276 146.68 598.256 147.04 599.496 147.04C600.976 147.04 602.236 146.64 603.276 145.84L605.796 152.44C604.836 153.12 603.676 153.64 602.316 154C600.996 154.32 599.616 154.48 598.176 154.48ZM581.136 129.64V122.44H603.516V129.64H581.136ZM611.05 154V121.72H619.99V130.84L618.73 128.2C619.69 125.92 621.23 124.2 623.35 123.04C625.47 121.84 628.05 121.24 631.09 121.24V129.88C630.69 129.84 630.33 129.82 630.01 129.82C629.69 129.78 629.35 129.76 628.99 129.76C626.43 129.76 624.35 130.5 622.75 131.98C621.19 133.42 620.41 135.68 620.41 138.76V154H611.05ZM654.347 154V147.7L653.747 146.32V135.04C653.747 133.04 653.127 131.48 651.887 130.36C650.687 129.24 648.827 128.68 646.307 128.68C644.587 128.68 642.887 128.96 641.207 129.52C639.567 130.04 638.167 130.76 637.007 131.68L633.647 125.14C635.407 123.9 637.527 122.94 640.007 122.26C642.487 121.58 645.007 121.24 647.567 121.24C652.487 121.24 656.307 122.4 659.027 124.72C661.747 127.04 663.107 130.66 663.107 135.58V154H654.347ZM644.507 154.48C641.987 154.48 639.827 154.06 638.027 153.22C636.227 152.34 634.847 151.16 633.887 149.68C632.927 148.2 632.447 146.54 632.447 144.7C632.447 142.78 632.907 141.1 633.827 139.66C634.787 138.22 636.287 137.1 638.327 136.3C640.367 135.46 643.027 135.04 646.307 135.04H654.887V140.5H647.327C645.127 140.5 643.607 140.86 642.767 141.58C641.967 142.3 641.567 143.2 641.567 144.28C641.567 145.48 642.027 146.44 642.947 147.16C643.907 147.84 645.207 148.18 646.847 148.18C648.407 148.18 649.807 147.82 651.047 147.1C652.287 146.34 653.187 145.24 653.747 143.8L655.187 148.12C654.507 150.2 653.267 151.78 651.467 152.86C649.667 153.94 647.347 154.48 644.507 154.48ZM685.672 154.48C682.632 154.48 679.892 153.8 677.452 152.44C675.012 151.04 673.072 149.1 671.632 146.62C670.232 144.14 669.532 141.22 669.532 137.86C669.532 134.46 670.232 131.52 671.632 129.04C673.072 126.56 675.012 124.64 677.452 123.28C679.892 121.92 682.632 121.24 685.672 121.24C688.392 121.24 690.772 121.84 692.812 123.04C694.852 124.24 696.432 126.06 697.552 128.5C698.672 130.94 699.232 134.06 699.232 137.86C699.232 141.62 698.692 144.74 697.612 147.22C696.532 149.66 694.972 151.48 692.932 152.68C690.932 153.88 688.512 154.48 685.672 154.48ZM687.292 146.8C688.812 146.8 690.192 146.44 691.432 145.72C692.672 145 693.652 143.98 694.372 142.66C695.132 141.3 695.512 139.7 695.512 137.86C695.512 135.98 695.132 134.38 694.372 133.06C693.652 131.74 692.672 130.72 691.432 130C690.192 129.28 688.812 128.92 687.292 128.92C685.732 128.92 684.332 129.28 683.092 130C681.852 130.72 680.852 131.74 680.092 133.06C679.372 134.38 679.012 135.98 679.012 137.86C679.012 139.7 679.372 141.3 680.092 142.66C680.852 143.98 681.852 145 683.092 145.72C684.332 146.44 685.732 146.8 687.292 146.8ZM695.752 154V147.4L695.932 137.8L695.332 128.26V109.48H704.692V154H695.752ZM733.155 154V147.7L732.555 146.32V135.04C732.555 133.04 731.935 131.48 730.695 130.36C729.495 129.24 727.635 128.68 725.115 128.68C723.395 128.68 721.695 128.96 720.015 129.52C718.375 130.04 716.975 130.76 715.815 131.68L712.455 125.14C714.215 123.9 716.335 122.94 718.815 122.26C721.295 121.58 723.815 121.24 726.375 121.24C731.295 121.24 735.115 122.4 737.835 124.72C740.555 127.04 741.915 130.66 741.915 135.58V154H733.155ZM723.315 154.48C720.795 154.48 718.635 154.06 716.835 153.22C715.035 152.34 713.655 151.16 712.695 149.68C711.735 148.2 711.255 146.54 711.255 144.7C711.255 142.78 711.715 141.1 712.635 139.66C713.595 138.22 715.095 137.1 717.135 136.3C719.175 135.46 721.835 135.04 725.115 135.04H733.695V140.5H726.135C723.935 140.5 722.415 140.86 721.575 141.58C720.775 142.3 720.375 143.2 720.375 144.28C720.375 145.48 720.835 146.44 721.755 147.16C722.715 147.84 724.015 148.18 725.655 148.18C727.215 148.18 728.615 147.82 729.855 147.1C731.095 146.34 731.995 145.24 732.555 143.8L733.995 148.12C733.315 150.2 732.075 151.78 730.275 152.86C728.475 153.94 726.155 154.48 723.315 154.48ZM782.979 154.48C779.499 154.48 776.399 153.78 773.679 152.38C770.959 150.94 768.819 148.96 767.259 146.44C765.739 143.92 764.979 141.06 764.979 137.86C764.979 134.62 765.739 131.76 767.259 129.28C768.819 126.76 770.959 124.8 773.679 123.4C776.399 121.96 779.499 121.24 782.979 121.24C786.379 121.24 789.339 121.96 791.859 123.4C794.379 124.8 796.239 126.82 797.439 129.46L790.179 133.36C789.339 131.84 788.279 130.72 786.999 130C785.759 129.28 784.399 128.92 782.919 128.92C781.319 128.92 779.879 129.28 778.599 130C777.319 130.72 776.299 131.74 775.539 133.06C774.819 134.38 774.459 135.98 774.459 137.86C774.459 139.74 774.819 141.34 775.539 142.66C776.299 143.98 777.319 145 778.599 145.72C779.879 146.44 781.319 146.8 782.919 146.8C784.399 146.8 785.759 146.46 786.999 145.78C788.279 145.06 789.339 143.92 790.179 142.36L797.439 146.32C796.239 148.92 794.379 150.94 791.859 152.38C789.339 153.78 786.379 154.48 782.979 154.48ZM817.778 154.48C814.338 154.48 811.278 153.76 808.598 152.32C805.958 150.88 803.858 148.92 802.298 146.44C800.778 143.92 800.018 141.06 800.018 137.86C800.018 134.62 800.778 131.76 802.298 129.28C803.858 126.76 805.958 124.8 808.598 123.4C811.278 121.96 814.338 121.24 817.778 121.24C821.178 121.24 824.218 121.96 826.898 123.4C829.578 124.8 831.678 126.74 833.198 129.22C834.718 131.7 835.478 134.58 835.478 137.86C835.478 141.06 834.718 143.92 833.198 146.44C831.678 148.92 829.578 150.88 826.898 152.32C824.218 153.76 821.178 154.48 817.778 154.48ZM817.778 146.8C819.338 146.8 820.738 146.44 821.978 145.72C823.218 145 824.198 143.98 824.918 142.66C825.638 141.3 825.998 139.7 825.998 137.86C825.998 135.98 825.638 134.38 824.918 133.06C824.198 131.74 823.218 130.72 821.978 130C820.738 129.28 819.338 128.92 817.778 128.92C816.218 128.92 814.818 129.28 813.578 130C812.338 130.72 811.338 131.74 810.578 133.06C809.858 134.38 809.498 135.98 809.498 137.86C809.498 139.7 809.858 141.3 810.578 142.66C811.338 143.98 812.338 145 813.578 145.72C814.818 146.44 816.218 146.8 817.778 146.8ZM883.074 121.24C885.634 121.24 887.894 121.76 889.854 122.8C891.854 123.8 893.414 125.36 894.534 127.48C895.694 129.56 896.274 132.24 896.274 135.52V154H886.914V136.96C886.914 134.36 886.374 132.44 885.294 131.2C884.214 129.96 882.694 129.34 880.734 129.34C879.374 129.34 878.154 129.66 877.074 130.3C875.994 130.9 875.154 131.82 874.554 133.06C873.954 134.3 873.654 135.88 873.654 137.8V154H864.294V136.96C864.294 134.36 863.754 132.44 862.674 131.2C861.634 129.96 860.134 129.34 858.174 129.34C856.814 129.34 855.594 129.66 854.514 130.3C853.434 130.9 852.594 131.82 851.994 133.06C851.394 134.3 851.094 135.88 851.094 137.8V154H841.734V121.72H850.674V130.54L848.994 127.96C850.114 125.76 851.694 124.1 853.734 122.98C855.814 121.82 858.174 121.24 860.814 121.24C863.774 121.24 866.354 122 868.554 123.52C870.794 125 872.274 127.28 872.994 130.36L869.694 129.46C870.774 126.94 872.494 124.94 874.854 123.46C877.254 121.98 879.994 121.24 883.074 121.24ZM932.516 154.48C929.756 154.48 927.096 154.16 924.536 153.52C922.016 152.84 920.016 152 918.536 151L921.656 144.28C923.136 145.2 924.876 145.96 926.876 146.56C928.916 147.12 930.916 147.4 932.876 147.4C935.036 147.4 936.556 147.14 937.436 146.62C938.356 146.1 938.816 145.38 938.816 144.46C938.816 143.7 938.456 143.14 937.736 142.78C937.056 142.38 936.136 142.08 934.976 141.88C933.816 141.68 932.536 141.48 931.136 141.28C929.776 141.08 928.396 140.82 926.996 140.5C925.596 140.14 924.316 139.62 923.156 138.94C921.996 138.26 921.056 137.34 920.336 136.18C919.656 135.02 919.316 133.52 919.316 131.68C919.316 129.64 919.896 127.84 921.056 126.28C922.256 124.72 923.976 123.5 926.216 122.62C928.456 121.7 931.136 121.24 934.256 121.24C936.456 121.24 938.696 121.48 940.976 121.96C943.256 122.44 945.156 123.14 946.676 124.06L943.556 130.72C941.996 129.8 940.416 129.18 938.816 128.86C937.256 128.5 935.736 128.32 934.256 128.32C932.176 128.32 930.656 128.6 929.696 129.16C928.736 129.72 928.256 130.44 928.256 131.32C928.256 132.12 928.596 132.72 929.276 133.12C929.996 133.52 930.936 133.84 932.096 134.08C933.256 134.32 934.516 134.54 935.876 134.74C937.276 134.9 938.676 135.16 940.076 135.52C941.476 135.88 942.736 136.4 943.856 137.08C945.016 137.72 945.956 138.62 946.676 139.78C947.396 140.9 947.756 142.38 947.756 144.22C947.756 146.22 947.156 148 945.956 149.56C944.756 151.08 943.016 152.28 940.736 153.16C938.496 154.04 935.756 154.48 932.516 154.48ZM967.151 154.48C964.471 154.48 962.071 153.96 959.951 152.92C957.871 151.88 956.251 150.3 955.091 148.18C953.931 146.02 953.351 143.28 953.351 139.96V121.72H962.711V138.58C962.711 141.26 963.271 143.24 964.391 144.52C965.551 145.76 967.171 146.38 969.251 146.38C970.691 146.38 971.971 146.08 973.091 145.48C974.211 144.84 975.091 143.88 975.731 142.6C976.371 141.28 976.691 139.64 976.691 137.68V121.72H986.051V154H977.171V145.12L978.791 147.7C977.711 149.94 976.111 151.64 973.991 152.8C971.911 153.92 969.631 154.48 967.151 154.48ZM1010.32 154.48C1006.84 154.48 1003.74 153.78 1001.02 152.38C998.302 150.94 996.162 148.96 994.602 146.44C993.082 143.92 992.322 141.06 992.322 137.86C992.322 134.62 993.082 131.76 994.602 129.28C996.162 126.76 998.302 124.8 1001.02 123.4C1003.74 121.96 1006.84 121.24 1010.32 121.24C1013.72 121.24 1016.68 121.96 1019.2 123.4C1021.72 124.8 1023.58 126.82 1024.78 129.46L1017.52 133.36C1016.68 131.84 1015.62 130.72 1014.34 130C1013.1 129.28 1011.74 128.92 1010.26 128.92C1008.66 128.92 1007.22 129.28 1005.94 130C1004.66 130.72 1003.64 131.74 1002.88 133.06C1002.16 134.38 1001.8 135.98 1001.8 137.86C1001.8 139.74 1002.16 141.34 1002.88 142.66C1003.64 143.98 1004.66 145 1005.94 145.72C1007.22 146.44 1008.66 146.8 1010.26 146.8C1011.74 146.8 1013.1 146.46 1014.34 145.78C1015.62 145.06 1016.68 143.92 1017.52 142.36L1024.78 146.32C1023.58 148.92 1021.72 150.94 1019.2 152.38C1016.68 153.78 1013.72 154.48 1010.32 154.48ZM1045.78 154.48C1042.1 154.48 1038.86 153.76 1036.06 152.32C1033.3 150.88 1031.16 148.92 1029.64 146.44C1028.12 143.92 1027.36 141.06 1027.36 137.86C1027.36 134.62 1028.1 131.76 1029.58 129.28C1031.1 126.76 1033.16 124.8 1035.76 123.4C1038.36 121.96 1041.3 121.24 1044.58 121.24C1047.74 121.24 1050.58 121.92 1053.1 123.28C1055.66 124.6 1057.68 126.52 1059.16 129.04C1060.64 131.52 1061.38 134.5 1061.38 137.98C1061.38 138.34 1061.36 138.76 1061.32 139.24C1061.28 139.68 1061.24 140.1 1061.2 140.5H1034.98V135.04H1056.28L1052.68 136.66C1052.68 134.98 1052.34 133.52 1051.66 132.28C1050.98 131.04 1050.04 130.08 1048.84 129.4C1047.64 128.68 1046.24 128.32 1044.64 128.32C1043.04 128.32 1041.62 128.68 1040.38 129.4C1039.18 130.08 1038.24 131.06 1037.56 132.34C1036.88 133.58 1036.54 135.06 1036.54 136.78V138.22C1036.54 139.98 1036.92 141.54 1037.68 142.9C1038.48 144.22 1039.58 145.24 1040.98 145.96C1042.42 146.64 1044.1 146.98 1046.02 146.98C1047.74 146.98 1049.24 146.72 1050.52 146.2C1051.84 145.68 1053.04 144.9 1054.12 143.86L1059.1 149.26C1057.62 150.94 1055.76 152.24 1053.52 153.16C1051.28 154.04 1048.7 154.48 1045.78 154.48ZM1078.47 154.48C1075.71 154.48 1073.05 154.16 1070.49 153.52C1067.97 152.84 1065.97 152 1064.49 151L1067.61 144.28C1069.09 145.2 1070.83 145.96 1072.83 146.56C1074.87 147.12 1076.87 147.4 1078.83 147.4C1080.99 147.4 1082.51 147.14 1083.39 146.62C1084.31 146.1 1084.77 145.38 1084.77 144.46C1084.77 143.7 1084.41 143.14 1083.69 142.78C1083.01 142.38 1082.09 142.08 1080.93 141.88C1079.77 141.68 1078.49 141.48 1077.09 141.28C1075.73 141.08 1074.35 140.82 1072.95 140.5C1071.55 140.14 1070.27 139.62 1069.11 138.94C1067.95 138.26 1067.01 137.34 1066.29 136.18C1065.61 135.02 1065.27 133.52 1065.27 131.68C1065.27 129.64 1065.85 127.84 1067.01 126.28C1068.21 124.72 1069.93 123.5 1072.17 122.62C1074.41 121.7 1077.09 121.24 1080.21 121.24C1082.41 121.24 1084.65 121.48 1086.93 121.96C1089.21 122.44 1091.11 123.14 1092.63 124.06L1089.51 130.72C1087.95 129.8 1086.37 129.18 1084.77 128.86C1083.21 128.5 1081.69 128.32 1080.21 128.32C1078.13 128.32 1076.61 128.6 1075.65 129.16C1074.69 129.72 1074.21 130.44 1074.21 131.32C1074.21 132.12 1074.55 132.72 1075.23 133.12C1075.95 133.52 1076.89 133.84 1078.05 134.08C1079.21 134.32 1080.47 134.54 1081.83 134.74C1083.23 134.9 1084.63 135.16 1086.03 135.52C1087.43 135.88 1088.69 136.4 1089.81 137.08C1090.97 137.72 1091.91 138.62 1092.63 139.78C1093.35 140.9 1093.71 142.38 1093.71 144.22C1093.71 146.22 1093.11 148 1091.91 149.56C1090.71 151.08 1088.97 152.28 1086.69 153.16C1084.45 154.04 1081.71 154.48 1078.47 154.48ZM1110.35 154.48C1107.59 154.48 1104.93 154.16 1102.37 153.52C1099.85 152.84 1097.85 152 1096.37 151L1099.49 144.28C1100.97 145.2 1102.71 145.96 1104.71 146.56C1106.75 147.12 1108.75 147.4 1110.71 147.4C1112.87 147.4 1114.39 147.14 1115.27 146.62C1116.19 146.1 1116.65 145.38 1116.65 144.46C1116.65 143.7 1116.29 143.14 1115.57 142.78C1114.89 142.38 1113.97 142.08 1112.81 141.88C1111.65 141.68 1110.37 141.48 1108.97 141.28C1107.61 141.08 1106.23 140.82 1104.83 140.5C1103.43 140.14 1102.15 139.62 1100.99 138.94C1099.83 138.26 1098.89 137.34 1098.17 136.18C1097.49 135.02 1097.15 133.52 1097.15 131.68C1097.15 129.64 1097.73 127.84 1098.89 126.28C1100.09 124.72 1101.81 123.5 1104.05 122.62C1106.29 121.7 1108.97 121.24 1112.09 121.24C1114.29 121.24 1116.53 121.48 1118.81 121.96C1121.09 122.44 1122.99 123.14 1124.51 124.06L1121.39 130.72C1119.83 129.8 1118.25 129.18 1116.65 128.86C1115.09 128.5 1113.57 128.32 1112.09 128.32C1110.01 128.32 1108.49 128.6 1107.53 129.16C1106.57 129.72 1106.09 130.44 1106.09 131.32C1106.09 132.12 1106.43 132.72 1107.11 133.12C1107.83 133.52 1108.77 133.84 1109.93 134.08C1111.09 134.32 1112.35 134.54 1113.71 134.74C1115.11 134.9 1116.51 135.16 1117.91 135.52C1119.31 135.88 1120.57 136.4 1121.69 137.08C1122.85 137.72 1123.79 138.62 1124.51 139.78C1125.23 140.9 1125.59 142.38 1125.59 144.22C1125.59 146.22 1124.99 148 1123.79 149.56C1122.59 151.08 1120.85 152.28 1118.57 153.16C1116.33 154.04 1113.59 154.48 1110.35 154.48ZM1146.72 154.48C1143.28 154.48 1140.22 153.76 1137.54 152.32C1134.9 150.88 1132.8 148.92 1131.24 146.44C1129.72 143.92 1128.96 141.06 1128.96 137.86C1128.96 134.62 1129.72 131.76 1131.24 129.28C1132.8 126.76 1134.9 124.8 1137.54 123.4C1140.22 121.96 1143.28 121.24 1146.72 121.24C1150.12 121.24 1153.16 121.96 1155.84 123.4C1158.52 124.8 1160.62 126.74 1162.14 129.22C1163.66 131.7 1164.42 134.58 1164.42 137.86C1164.42 141.06 1163.66 143.92 1162.14 146.44C1160.62 148.92 1158.52 150.88 1155.84 152.32C1153.16 153.76 1150.12 154.48 1146.72 154.48ZM1146.72 146.8C1148.28 146.8 1149.68 146.44 1150.92 145.72C1152.16 145 1153.14 143.98 1153.86 142.66C1154.58 141.3 1154.94 139.7 1154.94 137.86C1154.94 135.98 1154.58 134.38 1153.86 133.06C1153.14 131.74 1152.16 130.72 1150.92 130C1149.68 129.28 1148.28 128.92 1146.72 128.92C1145.16 128.92 1143.76 129.28 1142.52 130C1141.28 130.72 1140.28 131.74 1139.52 133.06C1138.8 134.38 1138.44 135.98 1138.44 137.86C1138.44 139.7 1138.8 141.3 1139.52 142.66C1140.28 143.98 1141.28 145 1142.52 145.72C1143.76 146.44 1145.16 146.8 1146.72 146.8Z" fill="white"/>
</g>
<defs>
<clipPath id="clip0_241_66">
<rect width="1228" height="261" fill="white"/>
</clipPath>
</defs>
</svg>
