<svg width="130" height="124" viewBox="0 0 130 124" fill="none" xmlns="http://www.w3.org/2000/svg">
<g clip-path="url(#clip0_414_503)">
<path d="M66.1571 80.8062C77.7507 80.8062 87.1492 71.8144 87.1492 60.7224C87.1492 49.6304 77.7507 40.6386 66.1571 40.6386C54.5635 40.6386 45.165 49.6304 45.165 60.7224C45.165 71.8144 54.5635 80.8062 66.1571 80.8062Z" fill="#FFB6B6"/>
<path d="M54.1055 83.7761L53.1571 74.6043L72.0954 71.2163L83.2784 97.2662L63.8298 118.664L49.9727 92.6145L54.1055 83.7761Z" fill="#FFB6B6"/>
<path d="M52.8535 79.1953L56.9939 80.0903C56.9939 80.0903 53.7391 70.2159 54.8438 69.2732C55.9486 68.3304 58.6558 69.8159 58.6558 69.8159L61.5006 72.8674L64.9659 69.492C64.9659 69.492 68.7279 65.0165 70.2009 63.7595C71.6739 62.5026 69.308 57.837 69.308 57.837C69.308 57.837 91.1613 52.1992 83.0297 42.0582C83.0297 42.0582 78.2621 34.1073 76.7095 36.6974C75.1569 39.2874 73.3056 35.1739 73.3056 35.1739L67.6524 36.2024C67.6524 36.2024 56.4952 29.9084 45.9057 43.373C35.3161 56.8376 52.8535 79.1953 52.8535 79.1953Z" fill="#2F2E41"/>
<path d="M105.637 110.035C94.1651 118.934 79.9725 123.769 64.9995 123.769C51.3271 123.769 38.3038 119.736 27.4102 112.261C27.4296 112.065 27.4491 111.872 27.4661 111.679C27.7554 108.656 28.0131 105.716 28.1832 103.278C28.8421 93.8141 51.9203 87.5063 51.9203 87.5063C51.9203 87.5063 52.0248 87.6063 52.2339 87.7808C53.5078 88.8507 58.6787 92.7303 67.7466 93.8141C75.8323 94.7817 78.4944 90.1927 79.299 87.9948C79.5422 87.3249 79.6151 86.876 79.6151 86.876L103.352 97.6007C104.901 99.7172 105.506 104.276 105.625 109.4C105.63 109.612 105.635 109.821 105.637 110.035Z" fill="white"/>
<path d="M110.726 18.153C98.512 6.46777 82.2724 0.0320435 64.9996 0.0320435C47.7268 0.0320435 31.4873 6.46777 19.2735 18.153C7.0598 29.8383 0.333008 45.3752 0.333008 61.9006C0.333008 76.984 5.93665 91.244 16.2055 102.504C17.1852 103.581 18.2087 104.63 19.2735 105.648C19.5239 105.888 19.7768 106.127 20.032 106.36C20.7127 106.99 21.4056 107.607 22.1106 108.204C22.5385 108.57 22.9712 108.928 23.4088 109.279C23.7516 109.556 24.0944 109.828 24.442 110.095C24.4493 110.102 24.4542 110.107 24.4614 110.112C25.4266 110.856 26.4087 111.572 27.4103 112.261C38.304 119.736 51.3273 123.769 64.9996 123.769C79.9726 123.769 94.1653 118.934 105.638 110.035C106.573 109.309 107.49 108.556 108.389 107.776C109.184 107.088 109.962 106.379 110.726 105.648C110.966 105.418 111.207 105.185 111.443 104.95C112.099 104.304 112.736 103.646 113.359 102.978C123.902 91.6464 129.666 77.198 129.666 61.9006C129.666 45.3752 122.939 29.8383 110.726 18.153ZM113.201 102.399C112.593 103.06 111.97 103.711 111.334 104.346C110.342 105.334 109.318 106.293 108.261 107.216C107.86 107.569 107.454 107.914 107.043 108.256C106.576 108.644 106.104 109.025 105.625 109.4C101.85 112.365 97.7146 114.924 93.2925 117.008C91.5446 117.834 89.7529 118.585 87.9198 119.257C80.7992 121.871 73.0708 123.304 64.9996 123.304C57.2105 123.304 49.7422 121.969 42.8306 119.527C39.9936 118.527 37.2513 117.338 34.6185 115.977C34.2319 115.777 33.8478 115.575 33.4662 115.368C31.4581 114.28 29.5157 113.091 27.651 111.807C27.5902 111.765 27.527 111.721 27.4663 111.679C26.1389 110.763 24.848 109.798 23.6008 108.784C23.1438 108.414 22.6916 108.039 22.2467 107.655C21.5223 107.039 20.8124 106.404 20.1195 105.753C18.8068 104.523 17.5523 103.241 16.3538 101.908C6.67569 91.1533 0.819223 77.1701 0.819223 61.9006C0.819223 28.0427 29.6105 0.497221 64.9996 0.497221C100.389 0.497221 129.18 28.0427 129.18 61.9006C129.18 77.405 123.144 91.5836 113.201 102.399Z" fill="#3F3D56"/>
</g>
<defs>
<clipPath id="clip0_414_503">
<rect width="129.333" height="123.737" fill="white" transform="translate(0.333008 0.0320435)"/>
</clipPath>
</defs>
</svg>
