<svg width="130" height="124" viewBox="0 0 130 124" fill="none" xmlns="http://www.w3.org/2000/svg">
<g clip-path="url(#clip0_401_481)">
<path d="M66.1571 80.8062C77.7507 80.8062 87.1492 71.8144 87.1492 60.7224C87.1492 49.6304 77.7507 40.6386 66.1571 40.6386C54.5635 40.6386 45.165 49.6304 45.165 60.7224C45.165 71.8144 54.5635 80.8062 66.1571 80.8062Z" fill="#FFB6B6"/>
<path d="M54.1065 83.7761L53.1581 74.6043L72.0964 71.2163L83.2794 97.2662L63.8308 118.664L49.9736 92.6145L54.1065 83.7761Z" fill="#FFB6B6"/>
<path d="M52.854 79.1953L56.9943 80.0903C56.9943 80.0903 53.7396 70.2159 54.8443 69.2732C55.9491 68.3304 58.6563 69.8159 58.6563 69.8159L61.5011 72.8674L64.9663 69.492C64.9663 69.492 68.7284 65.0165 70.2014 63.7595C71.6744 62.5026 69.3084 57.837 69.3084 57.837C69.3084 57.837 91.1618 52.1992 83.0302 42.0582C83.0302 42.0582 78.2626 34.1073 76.71 36.6974C75.1574 39.2874 73.3061 35.1739 73.3061 35.1739L67.6529 36.2024C67.6529 36.2024 56.4957 29.9084 45.9062 43.373C35.3166 56.8376 52.854 79.1953 52.854 79.1953Z" fill="#2F2E41"/>
<path d="M105.638 110.035C94.1656 118.934 79.9729 123.769 64.9999 123.769C51.3276 123.769 38.3043 119.736 27.4106 112.261C27.4301 112.065 27.4495 111.872 27.4666 111.679C27.7559 108.656 28.0136 105.716 28.1837 103.278C28.8426 93.8141 51.9208 87.5063 51.9208 87.5063C51.9208 87.5063 52.0253 87.6063 52.2344 87.7808C53.5083 88.8507 58.6791 92.7303 67.7471 93.8141C75.8328 94.7817 78.4948 90.1927 79.2995 87.9948C79.5426 87.3249 79.6156 86.876 79.6156 86.876L103.353 97.6007C104.901 99.7172 105.507 104.276 105.626 109.4C105.631 109.612 105.635 109.821 105.638 110.035Z" fill="white"/>
<path d="M110.726 18.153C98.5125 6.46777 82.2729 0.0320435 65.0001 0.0320435C47.7273 0.0320435 31.4877 6.46777 19.274 18.153C7.06029 29.8383 0.333496 45.3752 0.333496 61.9006C0.333496 76.984 5.93714 91.244 16.206 102.504C17.1857 103.581 18.2092 104.63 19.274 105.648C19.5244 105.888 19.7773 106.127 20.0325 106.36C20.7132 106.99 21.4061 107.607 22.1111 108.204C22.539 108.57 22.9717 108.928 23.4093 109.279C23.7521 109.556 24.0949 109.828 24.4425 110.095C24.4498 110.102 24.4546 110.107 24.4619 110.112C25.4271 110.856 26.4092 111.572 27.4108 112.261C38.3045 119.736 51.3278 123.769 65.0001 123.769C79.9731 123.769 94.1658 118.934 105.638 110.035C106.574 109.309 107.49 108.556 108.39 107.776C109.185 107.088 109.963 106.379 110.726 105.648C110.967 105.418 111.208 105.185 111.443 104.95C112.1 104.304 112.737 103.646 113.359 102.978C123.903 91.6464 129.667 77.198 129.667 61.9006C129.667 45.3752 122.94 29.8383 110.726 18.153ZM113.201 102.399C112.593 103.06 111.971 103.711 111.334 104.346C110.342 105.334 109.319 106.293 108.261 107.216C107.86 107.569 107.454 107.914 107.043 108.256C106.576 108.644 106.105 109.025 105.626 109.4C101.85 112.365 97.7151 114.924 93.293 117.008C91.545 117.834 89.7533 118.585 87.9203 119.257C80.7997 121.871 73.0713 123.304 65.0001 123.304C57.211 123.304 49.7427 121.969 42.8311 119.527C39.9941 118.527 37.2518 117.338 34.619 115.977C34.2324 115.777 33.8483 115.575 33.4666 115.368C31.4586 114.28 29.5161 113.091 27.6515 111.807C27.5907 111.765 27.5275 111.721 27.4667 111.679C26.1394 110.763 24.8485 109.798 23.6013 108.784C23.1443 108.414 22.6921 108.039 22.2472 107.655C21.5228 107.039 20.8129 106.404 20.12 105.753C18.8073 104.523 17.5528 103.241 16.3543 101.908C6.67618 91.1533 0.819711 77.1701 0.819711 61.9006C0.819711 28.0427 29.611 0.497221 65.0001 0.497221C100.389 0.497221 129.181 28.0427 129.181 61.9006C129.181 77.405 123.144 91.5836 113.201 102.399Z" fill="#3F3D56"/>
</g>
<defs>
<clipPath id="clip0_401_481">
<rect width="129.333" height="123.737" fill="white" transform="translate(0.333496 0.0320435)"/>
</clipPath>
</defs>
</svg>
