<svg width="97" height="97" viewBox="0 0 97 97" fill="none" xmlns="http://www.w3.org/2000/svg">
  <g clip-path="url(#clip0_389_75)">
    <path d="M49.3681 63.3204C58.0633 63.3204 65.1122 56.2716 65.1122 47.5764C65.1122 38.8811 58.0633 31.8323 49.3681 31.8323C40.6729 31.8323 33.624 38.8811 33.624 47.5764C33.624 56.2716 40.6729 63.3204 49.3681 63.3204Z" fill="#FFB6B6"/>
    <path d="M40.3296 65.6486L39.6183 58.4586L53.8221 55.8027L62.2093 76.2238L47.6228 92.9982L37.23 72.5772L40.3296 65.6486Z" fill="#FFB6B6"/>
    <path d="M39.3903 62.0578L42.4956 62.7594C42.4956 62.7594 40.0546 55.0186 40.8831 54.2796C41.7117 53.5406 43.7421 54.705 43.7421 54.705L45.8757 57.0972L48.4746 54.4511C48.4746 54.4511 51.2962 50.9427 52.401 49.9573C53.5057 48.972 51.7312 45.3145 51.7312 45.3145C51.7312 45.3145 68.1213 40.895 62.0225 32.9453C62.0225 32.9453 58.4468 26.7124 57.2824 28.7428C56.118 30.7732 54.7295 27.5485 54.7295 27.5485L50.4896 28.3548C50.4896 28.3548 42.1216 23.4208 34.1795 33.9759C26.2373 44.5311 39.3903 62.0578 39.3903 62.0578Z" fill="#2F2E41"/>
    <path d="M78.9785 86.2333C70.3743 93.2093 59.7299 96.9999 48.5001 96.9999C38.2458 96.9999 28.4783 93.8383 20.3081 87.9782C20.3227 87.825 20.3373 87.6737 20.35 87.5224C20.567 85.1521 20.7603 82.8474 20.8879 80.9366C21.382 73.5175 38.6907 68.5727 38.6907 68.5727C38.6907 68.5727 38.7691 68.6511 38.9259 68.7879C39.8813 69.6266 43.7595 72.6679 50.5604 73.5175C56.6248 74.276 58.6213 70.6787 59.2248 68.9556C59.4071 68.4305 59.4618 68.0786 59.4618 68.0786L77.2646 76.4859C78.4261 78.1451 78.8801 81.7188 78.9694 85.7355C78.973 85.9014 78.9767 86.0656 78.9785 86.2333Z" fill="white"/>
    <path d="M82.7946 14.2054C73.6343 5.04509 61.4546 0 48.5 0C35.5454 0 23.3657 5.04509 14.2054 14.2054C5.0451 23.3657 0 35.5454 0 48.5C0 60.3242 4.20273 71.5029 11.9044 80.3295C12.6392 81.1737 13.4068 81.996 14.2054 82.7946C14.3932 82.9824 14.5828 83.1702 14.7743 83.3525C15.2848 83.8467 15.8044 84.3298 16.3332 84.7984C16.6541 85.0847 16.9787 85.3655 17.3069 85.6408C17.5639 85.8578 17.821 86.0711 18.0818 86.2808C18.0872 86.2862 18.0909 86.2899 18.0963 86.2935C18.8202 86.877 19.5568 87.4386 20.308 87.9783C28.4783 93.8384 38.2457 97 48.5 97C59.7298 97 70.3742 93.2094 78.9784 86.2334C79.6804 85.6645 80.3678 85.0737 81.0424 84.4629C81.6386 83.9232 82.2221 83.3671 82.7946 82.7946C82.9751 82.6141 83.1556 82.4318 83.3325 82.2476C83.8248 81.7407 84.3025 81.2247 84.7693 80.7014C92.6769 71.8183 97 60.4919 97 48.5C97 35.5454 91.9549 23.3657 82.7946 14.2054ZM84.6507 80.2474C84.1949 80.7653 83.7281 81.2758 83.2504 81.7736C82.5065 82.5485 81.7389 83.2997 80.9458 84.0235C80.6449 84.3007 80.3404 84.5705 80.0323 84.8385C79.6822 85.143 79.3285 85.442 78.9693 85.7356C76.1377 88.0603 73.0363 90.066 69.7197 91.6996C68.4087 92.3469 67.0649 92.9359 65.6902 93.4628C60.3497 95.5122 54.5534 96.6353 48.5 96.6353C42.6581 96.6353 37.0569 95.5888 31.8733 93.6743C29.7455 92.8903 27.6888 91.9586 25.7141 90.8919C25.4242 90.7351 25.1361 90.5765 24.8499 90.4142C23.3438 89.5609 21.887 88.6292 20.4885 87.6227C20.4429 87.5899 20.3955 87.5553 20.35 87.5224C19.3544 86.8041 18.3862 86.0474 17.4509 85.2524C17.1081 84.9625 16.769 84.669 16.4353 84.3681C15.892 83.8849 15.3596 83.3872 14.8399 82.8767C13.8553 81.9121 12.9145 80.9075 12.0156 79.8627C4.75702 71.4318 0.364662 60.47 0.364662 48.5C0.364662 21.9581 21.9581 0.364662 48.5 0.364662C75.0419 0.364662 96.6353 21.9581 96.6353 48.5C96.6353 60.6542 92.1081 71.7691 84.6507 80.2474Z" fill="#3F3D56"/>
  </g>
  <defs>
    <clipPath id="clip0_389_75">
      <rect width="97" height="97" fill="white"/>
    </clipPath>
  </defs>
</svg>